<svg width="24" height="25" viewBox="0 0 24 25" fill="none" xmlns="http://www.w3.org/2000/svg">
<g id="ic-24px">
<path id="icon/action/zoom_in_24px" fill-rule="evenodd" clip-rule="evenodd" d="M14.965 14.5907H15.755L20.745 19.5907L19.255 21.0807L14.255 16.0907V15.3007L13.985 15.0207C12.845 16.0007 11.365 16.5907 9.755 16.5907C6.165 16.5907 3.255 13.6807 3.255 10.0907C3.255 6.5007 6.165 3.5907 9.755 3.5907C13.345 3.5907 16.255 6.5007 16.255 10.0907C16.255 11.7007 15.665 13.1807 14.685 14.3207L14.965 14.5907ZM5.255 10.0907C5.255 12.5807 7.26501 14.5907 9.755 14.5907C12.245 14.5907 14.255 12.5807 14.255 10.0907C14.255 7.6007 12.245 5.5907 9.755 5.5907C7.26501 5.5907 5.255 7.6007 5.255 10.0907Z" fill="white"/>
</g>
</svg>
